<svg width="128" height="27" viewBox="0 0 128 27" fill="none" xmlns="http://www.w3.org/2000/svg">
<g clip-path="url(#clip0_2990_19529)">
<path d="M22.5949 18.3141C22.3164 18.1465 22.0928 17.9013 21.9515 17.6086C21.8101 17.3159 21.7571 16.9882 21.799 16.6658C22.4238 16.3054 22.9427 15.7866 23.3034 15.1618C23.6642 14.537 23.8541 13.8282 23.8541 13.1066C23.8541 12.385 23.6642 11.6761 23.3034 11.0513C22.9427 10.4265 22.4238 9.90778 21.799 9.5473L9.55053 2.50839L6.16012 0.557556C5.53716 0.193001 4.82846 0.000862122 4.10677 0.000862122C3.38507 0.000862122 2.67637 0.193001 2.05342 0.557556C1.42623 0.915122 0.905461 1.43326 0.544604 2.05877C0.183747 2.68428 -0.00419785 3.39462 7.1136e-05 4.11683V22.168C-0.00419785 22.8902 0.183747 23.6005 0.544604 24.226C0.905461 24.8515 1.42623 25.3697 2.05342 25.7273C2.67637 26.0918 3.38507 26.284 4.10677 26.284C4.82846 26.284 5.53716 26.0918 6.16012 25.7273L8.85812 24.1347L12.5748 21.9848L15.4161 20.3446C17.0449 21.405 18.9406 21.9821 20.8837 22.0087C21.2727 22.0086 21.6611 21.9793 22.0457 21.9211C22.4483 21.8598 22.8207 21.6713 23.1087 21.3832C23.3966 21.0951 23.585 20.7225 23.6463 20.3197C23.7076 19.9169 23.6387 19.5051 23.4495 19.1443C23.2604 18.7835 22.9609 18.4926 22.5949 18.3141ZM18.2255 16.1403V16.1881L18.4165 16.5783V16.626L18.6155 17.0162C18.8304 17.4223 19.0453 17.8125 19.2442 18.123C19.5742 18.6742 19.9356 19.2059 20.3266 19.7155C19.4449 19.6146 18.5909 19.3442 17.8117 18.9193L17.6286 18.8237L17.5411 18.7759L17.1829 18.5848L17.0954 18.5371L16.9123 18.4335L16.8725 18.3141L16.7134 18.2504L16.6179 18.1947L16.3393 18.0274L16.212 17.9478L16.0846 17.8682L15.9175 17.7726L15.814 17.7089L15.5912 17.5656H15.5434L15.3604 17.4462L14.7237 17.0003L10.2748 19.5722L8.96158 20.3684L4.51266 22.8767C4.38965 22.9559 4.24721 22.9996 4.10097 23.0031C3.95473 23.0066 3.81035 22.9697 3.6837 22.8965C3.55705 22.8233 3.45302 22.7165 3.38304 22.588C3.31306 22.4595 3.27984 22.3142 3.28702 22.168V4.11683C3.28441 3.97304 3.32076 3.83123 3.39223 3.70646C3.46369 3.58168 3.5676 3.4786 3.69291 3.40816C3.81897 3.33598 3.96152 3.29758 4.10677 3.29668C4.24961 3.29672 4.38981 3.33523 4.51266 3.40816L9.41523 6.24284L20.1356 12.4377C20.266 12.5045 20.3754 12.6061 20.4518 12.7311C20.5282 12.8561 20.5686 12.9998 20.5686 13.1464C20.5686 13.2929 20.5282 13.4366 20.4518 13.5617C20.3754 13.6867 20.266 13.7882 20.1356 13.8551L19.2124 14.3885L18.3051 14.8902C17.8674 15.153 18.0186 15.6864 18.1221 15.9651L18.2255 16.1403Z" fill="url(#paint0_linear_2990_19529)"/>
<path d="M40.5506 7.16632C41.1326 7.69769 41.5889 8.3522 41.8863 9.08223C42.1837 9.81226 42.3146 10.5994 42.2697 11.3865C42.3187 12.2119 42.1907 13.0383 41.8942 13.8101C41.5977 14.5819 41.1395 15.2814 40.5506 15.8615C39.2021 16.9947 37.4692 17.565 35.7117 17.454H32.8067V21.9687H28.5488V5.6614H35.7117C37.454 5.5564 39.1748 6.09155 40.5506 7.16632ZM37.5183 13.409C37.7603 13.1614 37.9465 12.865 38.0645 12.5395C38.1826 12.214 38.2297 11.867 38.2027 11.5219C38.2236 11.1847 38.1711 10.8471 38.0488 10.5323C37.9265 10.2174 37.7374 9.93294 37.4944 9.69842C36.9269 9.24087 36.2082 9.0135 35.4809 9.06141H32.8067V14.0619H35.5047C36.2319 14.1073 36.9491 13.8738 37.5103 13.409H37.5183Z" fill="#2E3138"/>
<path d="M43.543 4.70588H47.6815V21.9687H43.543V4.70588Z" fill="#2E3138"/>
<path d="M59.7542 10.423C60.2369 10.8354 60.6196 11.3522 60.8733 11.9343C61.127 12.5165 61.2451 13.1487 61.2186 13.7832V21.9687H57.1517V20.5514C56.6909 21.0974 56.1073 21.5264 55.4488 21.8032C54.7903 22.08 54.0756 22.1968 53.3633 22.1439C52.201 22.217 51.0568 21.8278 50.1798 21.061C49.7958 20.6954 49.4942 20.252 49.2952 19.7604C49.0962 19.2688 49.0043 18.7404 49.0258 18.2104C48.9989 17.6797 49.0973 17.1502 49.313 16.6646C49.5287 16.1791 49.8557 15.7512 50.2674 15.4155C51.3073 14.6831 52.5629 14.3214 53.8329 14.3884H57.1119V14.245C57.1238 13.9855 57.0753 13.7268 56.9704 13.4891C56.8654 13.2515 56.7068 13.0414 56.507 12.8755C55.9867 12.5188 55.3615 12.3478 54.7322 12.3898C54.1296 12.3993 53.5306 12.4849 52.9495 12.6446C52.2628 12.8265 51.5962 13.0772 50.9598 13.3931L49.8217 10.5982C50.768 10.1599 51.7541 9.81325 52.7664 9.56305C53.7309 9.33234 54.7195 9.2174 55.7111 9.22066C57.1582 9.13297 58.5899 9.55872 59.7542 10.423ZM56.2683 18.8872C56.7042 18.6237 57.0209 18.2013 57.1517 17.7088V16.6179H54.6845C53.5225 16.6179 52.9415 17.0532 52.9415 17.9238C52.933 18.1195 52.9695 18.3146 53.0482 18.494C53.1268 18.6735 53.2455 18.8325 53.3952 18.9589C53.7497 19.2312 54.1904 19.3669 54.6367 19.3411C55.2134 19.3543 55.7811 19.1964 56.2683 18.8872Z" fill="#2E3138"/>
<path d="M67.7779 25.8226C66.8914 26.4135 65.842 26.7115 64.7774 26.6746C64.1147 26.6809 63.4556 26.5759 62.8275 26.3641C62.1878 26.1356 61.5906 25.8019 61.0607 25.3767L62.7798 22.5182C63.0295 22.7375 63.3114 22.9174 63.6154 23.0517C63.8808 23.1591 64.1648 23.2132 64.4511 23.2109C64.7698 23.2215 65.0844 23.1361 65.354 22.9657C65.6236 22.7954 65.8359 22.5479 65.9633 22.2554L66.2657 21.6741L61.0527 9.38788H65.3106L68.3111 17.5734L70.9852 9.38788H75.0999L69.7039 23.2029C69.3285 24.2441 68.6595 25.154 67.7779 25.8226Z" fill="#2E3138"/>
<path d="M84.9358 10.423C85.4186 10.8354 85.8013 11.3522 86.055 11.9343C86.3087 12.5165 86.4267 13.1487 86.4002 13.7832V21.9687H82.3333V20.5514C81.8729 21.0979 81.2894 21.5273 80.6308 21.8041C79.9722 22.081 79.2573 22.1974 78.545 22.1439C77.3826 22.217 76.2384 21.8278 75.3615 21.061C74.9774 20.6954 74.6758 20.252 74.4768 19.7604C74.2778 19.2688 74.186 18.7404 74.2075 18.2104C74.1806 17.6797 74.279 17.1502 74.4947 16.6646C74.7103 16.1791 75.0373 15.7512 75.449 15.4155C76.4889 14.6831 77.7446 14.3214 79.0145 14.3884H82.2935V14.245C82.3082 13.9809 82.2604 13.717 82.1539 13.4749C82.0474 13.2328 81.8853 13.0192 81.6807 12.8516C81.1604 12.495 80.5352 12.3239 79.9059 12.3659C79.3033 12.3754 78.7043 12.4611 78.1232 12.6207C77.4365 12.8026 76.7699 13.0534 76.1335 13.3692L74.9954 10.5743C75.9602 10.1382 76.965 9.79682 77.9958 9.55509C78.9529 9.32887 79.9333 9.21661 80.9167 9.22066C82.3557 9.13866 83.778 9.56412 84.9358 10.423ZM81.4499 18.8872C81.8858 18.6237 82.2025 18.2013 82.3333 17.7088V16.6179H79.8661C78.7041 16.6179 78.1232 17.0532 78.1232 17.9238C78.1147 18.1195 78.1512 18.3146 78.2298 18.494C78.3084 18.6735 78.4271 18.8325 78.5768 18.9589C78.9314 19.2312 79.3721 19.3669 79.8184 19.3411C80.3951 19.3543 80.9628 19.1964 81.4499 18.8872Z" fill="#2E3138"/>
<path d="M88.3418 4.70588H92.4803V21.9687H88.3418V4.70588Z" fill="#2E3138"/>
<path d="M98.4572 4.2122C98.6622 4.42202 98.8223 4.67146 98.9277 4.94528C99.033 5.21909 99.0815 5.51153 99.07 5.80472C99.081 6.09785 99.0324 6.39016 98.927 6.6639C98.8217 6.93765 98.6618 7.18714 98.4572 7.39723C98.0342 7.79939 97.4729 8.02362 96.8894 8.02362C96.3058 8.02362 95.7445 7.79939 95.3215 7.39723C95.1169 7.18714 94.9571 6.93765 94.8517 6.6639C94.7464 6.39016 94.6977 6.09785 94.7087 5.80472C94.6972 5.51153 94.7457 5.21909 94.8511 4.94528C94.9564 4.67146 95.1165 4.42202 95.3215 4.2122C95.7481 3.81711 96.308 3.59763 96.8894 3.59763C97.4707 3.59763 98.0306 3.81711 98.4572 4.2122ZM94.8678 9.38788H98.9825V21.9687H94.8678V9.38788Z" fill="#2E3138"/>
<path d="M112.824 10.5265C113.686 11.4864 114.133 12.7492 114.065 14.038V22.0006H109.951V15.2244C109.982 14.6078 109.774 14.0028 109.37 13.5364C109.164 13.3256 108.915 13.1617 108.641 13.0559C108.366 12.9501 108.072 12.9048 107.778 12.9233C107.148 12.9175 106.542 13.1607 106.091 13.6001C105.629 14.0604 105.347 14.6702 105.295 15.32V21.9767H101.156V9.38788H105.295V11.4343C105.712 10.7372 106.312 10.1673 107.03 9.78601C107.781 9.40336 108.615 9.21192 109.457 9.22863C110.078 9.19267 110.7 9.28987 111.281 9.5137C111.861 9.73753 112.387 10.0828 112.824 10.5265Z" fill="#2E3138"/>
<path d="M128.002 9.38787V20.854C128.02 21.9278 127.721 22.9832 127.142 23.8877C126.556 24.7762 125.727 25.478 124.755 25.9102C123.631 26.4014 122.415 26.6432 121.189 26.6189C120.157 26.6209 119.13 26.4707 118.141 26.173C117.228 25.9069 116.359 25.5071 115.562 24.9866L116.995 22.1598C117.564 22.5553 118.185 22.8689 118.841 23.0915C119.494 23.3064 120.176 23.4166 120.863 23.4179C121.653 23.4617 122.435 23.2311 123.075 22.765C123.338 22.5537 123.546 22.2835 123.685 21.9764C123.823 21.6693 123.887 21.3338 123.871 20.9973V19.6198C123.453 20.1645 122.908 20.5992 122.284 20.8864C121.66 21.1735 120.976 21.3045 120.29 21.268C119.312 21.2916 118.348 21.0302 117.516 20.5156C116.683 20.001 116.018 19.2554 115.602 18.3697C115.129 17.3759 114.894 16.2852 114.918 15.1846C114.895 14.1098 115.121 13.0443 115.578 12.0713C115.987 11.2078 116.637 10.4807 117.448 9.9771C118.275 9.4733 119.227 9.2138 120.194 9.22862C120.917 9.21841 121.634 9.3651 122.295 9.6586C122.921 9.93399 123.468 10.3609 123.887 10.9008V9.38787H128.002ZM123.227 17.438C123.711 16.8417 123.961 16.088 123.927 15.32C123.962 14.5445 123.713 13.7828 123.227 13.1781C122.994 12.9203 122.709 12.7142 122.392 12.5732C122.075 12.4321 121.731 12.3593 121.384 12.3593C121.037 12.3593 120.693 12.4321 120.376 12.5732C120.059 12.7142 119.774 12.9203 119.542 13.1781C119.056 13.7775 118.804 14.5329 118.833 15.3041C118.799 16.0735 119.051 16.8284 119.542 17.4221C119.771 17.6842 120.055 17.8918 120.375 18.0296C120.694 18.1673 121.04 18.2319 121.388 18.2184C121.727 18.2289 122.064 18.1644 122.375 18.0295C122.686 17.8946 122.963 17.6927 123.187 17.438H123.227Z" fill="#2E3138"/>
</g>
<defs>
<linearGradient id="paint0_linear_2990_19529" x1="7.1136e-05" y1="13.1384" x2="23.8444" y2="13.1384" gradientUnits="userSpaceOnUse">
<stop stop-color="#EF785B"/>
<stop offset="1" stop-color="#ED8844"/>
</linearGradient>
<clipPath id="clip0_2990_19529">
<rect width="128" height="26.6667" fill="white"/>
</clipPath>
</defs>
</svg>
