<svg width="34" height="34" viewBox="0 0 34 34" fill="none" xmlns="http://www.w3.org/2000/svg">
<path fill-rule="evenodd" clip-rule="evenodd" d="M30.0357 3.83337C30.1073 3.83337 30.1654 3.89141 30.1654 3.963V30.0371C30.1654 30.1087 30.1073 30.1667 30.0357 30.1667H3.96166C3.89007 30.1667 3.83203 30.1087 3.83203 30.0371V3.963C3.83203 3.89141 3.89007 3.83337 3.96166 3.83337H30.0357ZM33.1654 3.963C33.1654 2.23456 31.7642 0.833374 30.0357 0.833374H3.96166C2.23321 0.833374 0.832031 2.23456 0.832031 3.963V30.0371C0.832031 31.7655 2.23321 33.1667 3.96166 33.1667H30.0357C31.7642 33.1667 33.1654 31.7655 33.1654 30.0371V3.963ZM27.2096 12.5769C27.8043 12.0002 27.8189 11.0505 27.2422 10.4558C26.6655 9.86109 25.7159 9.84648 25.1211 10.4232L14.8216 20.4106L10.7096 16.4232C10.1148 15.8465 9.16521 15.8611 8.58851 16.4559C8.0118 17.0506 8.02642 18.0002 8.62115 18.5769L13.7774 23.5769C14.3592 24.1411 15.284 24.1411 15.8658 23.5769L27.2096 12.5769Z" fill="#fff"/>
</svg>
