<svg xmlns="http://www.w3.org/2000/svg" xmlns:xlink="http://www.w3.org/1999/xlink" viewBox="0 0 31 13">
    <defs>
        <style>.cls-1{fill:#c6d4e0;}.cls-2{fill:url(#linear-gradient);}</style>
        <linearGradient id="linear-gradient" y1="9.7" x2="5.41" y2="9.7" gradientUnits="userSpaceOnUse">
            <stop offset="0.01" stop-color="#2ec199"/>
            <stop offset="1" stop-color="#69d1a6"/>
        </linearGradient>
    </defs>
    <title>Beginner</title>
    <g id="Layer_2">
        <g id="Layer_1-2">
            <path class="cls-1"
                  d="M13.33,3.06v-2A1.09,1.09,0,0,0,12,0,15.87,15.87,0,0,0,7.1,2a1.08,1.08,0,0,0-.23,1.65L8.21,5.11a1.07,1.07,0,0,0,1.31.22,12,12,0,0,1,3-1.2A1.1,1.1,0,0,0,13.33,3.06Z"/>
            <path class="cls-1"
                  d="M25.74,9.42A11.87,11.87,0,0,1,27,12.24,1.06,1.06,0,0,0,28,13h1.87A1.08,1.08,0,0,0,31,11.66a15.66,15.66,0,0,0-2.08-4.76,1.1,1.1,0,0,0-1.72-.14L25.88,8.16A1,1,0,0,0,25.74,9.42Z"/>
            <path class="cls-2"
                  d="M1.09,13H3a1.06,1.06,0,0,0,1-.76,11.87,11.87,0,0,1,1.3-2.82,1,1,0,0,0-.14-1.26L3.83,6.75a1.1,1.1,0,0,0-1.72.14A15.66,15.66,0,0,0,0,11.66,1.08,1.08,0,0,0,1.09,13Z"/>
            <path class="cls-1"
                  d="M22.79,5.11l1.34-1.46A1.08,1.08,0,0,0,23.9,2,15.87,15.87,0,0,0,19,0a1.09,1.09,0,0,0-1.33,1.05v2a1.1,1.1,0,0,0,.81,1.07,12,12,0,0,1,3,1.2A1.07,1.07,0,0,0,22.79,5.11Z"/>
        </g>
    </g>
</svg>