<svg xmlns="http://www.w3.org/2000/svg" viewBox="0 0 29 12">
    <defs>
        <style>.cls-1,.cls-2{fill:#fff;}.cls-1{opacity:0.7;}</style>
    </defs>
    <title>Beginner</title>
    <g id="Layer_2">
        <g id="Layer_1-2">
            <path class="cls-1"
                  d="M12.47,2.83V1a1,1,0,0,0-1.25-1A15,15,0,0,0,6.64,1.86a1,1,0,0,0-.22,1.52L7.68,4.72a1,1,0,0,0,1.22.21,11.34,11.34,0,0,1,2.8-1.11A1,1,0,0,0,12.47,2.83Z"/>
            <path class="cls-1"
                  d="M24.08,8.69a10.89,10.89,0,0,1,1.22,2.6,1,1,0,0,0,.94.7H28a1,1,0,0,0,1-1.24A14.36,14.36,0,0,0,27,6.36a1,1,0,0,0-1.61-.13l-1.21,1.3A1,1,0,0,0,24.08,8.69Z"/>
            <path class="cls-2"
                  d="M1,12H2.76a1,1,0,0,0,.94-.7,10.89,10.89,0,0,1,1.22-2.6,1,1,0,0,0-.13-1.17L3.58,6.23A1,1,0,0,0,2,6.36,14.36,14.36,0,0,0,0,10.76,1,1,0,0,0,1,12Z"/>
            <path class="cls-1"
                  d="M21.32,4.72l1.26-1.35a1,1,0,0,0-.22-1.52A15,15,0,0,0,17.78,0a1,1,0,0,0-1.25,1V2.83a1,1,0,0,0,.76,1,11.34,11.34,0,0,1,2.8,1.11A1,1,0,0,0,21.32,4.72Z"/>
        </g>
    </g>
</svg>