<svg xmlns="http://www.w3.org/2000/svg" xmlns:xlink="http://www.w3.org/1999/xlink" viewBox="0 0 31 13">
    <defs>
        <style>
            .cls-1{fill:url(#linear-gradient);}.cls-2{fill:url(#linear-gradient-2);}.cls-3{fill:url(#linear-gradient-3);}.cls-4{fill:url(#linear-gradient-4);}
        </style>
        <linearGradient id="linear-gradient" x1="6.58" y1="2.74" x2="13.33" y2="2.74" gradientUnits="userSpaceOnUse">
            <stop offset="0.01" stop-color="#f34d49"/>
            <stop offset="1" stop-color="#ee6456"/>
        </linearGradient>
        <linearGradient id="linear-gradient-2" x1="25.59" y1="9.7" x2="31" y2="9.7" xlink:href="#linear-gradient"/>
        <linearGradient id="linear-gradient-3" x1="0" y1="9.7" x2="5.41" y2="9.7" xlink:href="#linear-gradient"/>
        <linearGradient id="linear-gradient-4" x1="17.67" y1="2.74" x2="24.42" y2="2.74" xlink:href="#linear-gradient"/>
    </defs>
    <title>Expert</title>
    <g id="Layer_2">
        <g id="Layer_1-2">
            <path class="cls-1"
                  d="M13.33,3.06v-2A1.09,1.09,0,0,0,12,0,15.87,15.87,0,0,0,7.1,2a1.08,1.08,0,0,0-.23,1.65L8.21,5.11a1.07,1.07,0,0,0,1.31.22,12,12,0,0,1,3-1.2A1.1,1.1,0,0,0,13.33,3.06Z"/>
            <path class="cls-2"
                  d="M25.74,9.42A11.87,11.87,0,0,1,27,12.24,1.06,1.06,0,0,0,28,13h1.87A1.08,1.08,0,0,0,31,11.66a15.66,15.66,0,0,0-2.08-4.76,1.1,1.1,0,0,0-1.72-.14L25.88,8.16A1,1,0,0,0,25.74,9.42Z"/>
            <path class="cls-3"
                  d="M1.09,13H3a1.06,1.06,0,0,0,1-.76,11.87,11.87,0,0,1,1.3-2.82,1,1,0,0,0-.14-1.26L3.83,6.75a1.1,1.1,0,0,0-1.72.14A15.66,15.66,0,0,0,0,11.66,1.08,1.08,0,0,0,1.09,13Z"/>
            <path class="cls-4"
                  d="M22.79,5.11l1.34-1.46A1.08,1.08,0,0,0,23.9,2,15.87,15.87,0,0,0,19,0a1.09,1.09,0,0,0-1.33,1.05v2a1.1,1.1,0,0,0,.81,1.07,12,12,0,0,1,3,1.2A1.07,1.07,0,0,0,22.79,5.11Z"/>
        </g>
    </g>
</svg>