<svg width="22" height="22" viewBox="0 0 22 22" fill="none" xmlns="http://www.w3.org/2000/svg">
<path d="M10.9997 8.25002C11.5059 8.25002 11.9163 7.83961 11.9163 7.33335C11.9163 6.82709 11.5059 6.41669 10.9997 6.41669C10.4934 6.41669 10.083 6.82709 10.083 7.33335C10.083 7.83961 10.4934 8.25002 10.9997 8.25002Z" fill="#fff"/>
<path d="M11 19.25C6.4625 19.25 2.75 15.5375 2.75 11C2.75 6.4625 6.4625 2.75 11 2.75C15.5375 2.75 19.25 6.4625 19.25 11C19.25 15.5375 15.5375 19.25 11 19.25ZM11 4.125C7.21875 4.125 4.125 7.21875 4.125 11C4.125 14.7812 7.21875 17.875 11 17.875C14.7812 17.875 17.875 14.7812 17.875 11C17.875 7.21875 14.7812 4.125 11 4.125Z" fill="#fff"/>
<rect x="10" y="9" width="2" height="6.6" rx="1" fill="#fff"/>
</svg>
