<svg width="38" height="29" viewBox="0 0 38 29" fill="none" xmlns="http://www.w3.org/2000/svg">
    <path fill-rule="evenodd" clip-rule="evenodd"
          d="M4.66675 3.66699H33.3334C33.8857 3.66699 34.3334 4.11471 34.3334 4.66699V25.0003C34.3334 25.5526 33.8857 26.0003 33.3334 26.0003H4.66675C4.11446 26.0003 3.66675 25.5526 3.66675 25.0003V4.667C3.66675 4.11471 4.11447 3.66699 4.66675 3.66699ZM0.666748 4.667C0.666748 2.45786 2.45761 0.666992 4.66675 0.666992H33.3334C35.5425 0.666992 37.3334 2.45785 37.3334 4.66699V25.0003C37.3334 27.2095 35.5426 29.0003 33.3334 29.0003H4.66675C2.45761 29.0003 0.666748 27.2095 0.666748 25.0003V4.667ZM14.673 19.6885C14.673 20.3899 15.4941 20.802 16.1929 20.4513L25.6968 15.6813C26.4339 15.3113 26.4815 14.3799 25.7813 14.0284L16.2774 9.25845C15.5772 8.90699 14.673 9.40857 14.673 10.1485V19.6885Z"
          fill="#fff"/>
</svg>
