<svg width="36" height="36" viewBox="0 0 36 36" fill="none" xmlns="http://www.w3.org/2000/svg">
<path d="M18 28.7812C16.85 28.7812 15.8438 27.775 15.8438 26.625C15.8438 25.475 16.85 24.4688 18 24.4688C19.15 24.4688 20.1562 25.475 20.1562 26.625C20.1562 27.775 19.15 28.7812 18 28.7812ZM18 25.9062C17.5688 25.9062 17.2812 26.1938 17.2812 26.625C17.2812 27.0563 17.5688 27.3438 18 27.3438C18.4313 27.3438 18.7188 27.0563 18.7188 26.625C18.7188 26.1938 18.4313 25.9062 18 25.9062Z" fill="#fff"/>
<path d="M18 28.0625C18.7939 28.0625 19.4375 27.4189 19.4375 26.625C19.4375 25.8311 18.7939 25.1875 18 25.1875C17.2061 25.1875 16.5625 25.8311 16.5625 26.625C16.5625 27.4189 17.2061 28.0625 18 28.0625Z" fill="#D9D9D9"/>
<path d="M18 35.25C8.5125 35.25 0.75 27.4875 0.75 18C0.75 8.5125 8.5125 0.75 18 0.75C27.4875 0.75 35.25 8.5125 35.25 18C35.25 27.4875 27.4875 35.25 18 35.25ZM18 3.625C10.0938 3.625 3.625 10.0938 3.625 18C3.625 25.9062 10.0938 32.375 18 32.375C25.9062 32.375 32.375 25.9062 32.375 18C32.375 10.0938 25.9062 3.625 18 3.625Z" fill="#fff" />
<path d="M18 23.7503C17.1375 23.7503 16.5625 23.1753 16.5625 22.3128V21.3066C16.5625 19.1503 17.7125 17.2816 19.4375 16.2753C20.5875 15.7003 21.1625 14.4066 20.875 13.2566C20.7312 12.1066 19.725 11.1003 18.575 10.9566C17.7125 10.8128 16.85 10.9566 16.1312 11.5316C15.5562 11.9628 15.125 12.8253 15.125 13.6878C15.125 14.5503 14.55 15.1253 13.6875 15.1253C12.825 15.1253 12.25 14.5503 12.25 13.6878C12.25 11.9628 12.9687 10.3816 14.2625 9.23156C15.5562 8.08156 17.2812 7.65031 19.0062 7.93781C21.3062 8.36906 23.175 10.2378 23.6062 12.5378C24.0375 14.9816 22.8875 17.4253 20.7312 18.5753C19.8687 19.0066 19.4375 20.0128 19.4375 21.1628V22.3128C19.4375 23.1753 18.8625 23.7503 18 23.7503Z" fill="#fff"/>
</svg>
